# xmcd
#
# Track frame offsets:
#	150
#	19485
#	38607
#	54870
#	79485
#	98265
#	112325
#	128365
#	144460
#	159270
#	174497
#	192067
#	211552
#	232355
#	248605
#	262767
#	287750
#
# Disc length: 4111 seconds
#
# Revision: 1
# Processed by: cddbd v1.5.1PL0 Copyright (c) Steve Scherf et al.
# Submitted via: CDex 1.50Beta5
#
DISCID=d8100d11
DTITLE=板東英二 - 山本正之作品大全集 Disc 1
DYEAR=1996
DGENRE=
TTITLE0=板東英二/燃えよドラゴンズ!
TTITLE1=笑福亭鶴光/うぐいすだにミュージックホール
TTITLE2=笑福亭鶴光/ももえちゃん
TTITLE3=笑福亭鶴光/怪傑鶴光仮面の唄
TTITLE4=間寛平/ひらけ!チューリップ
TTITLE5=間寛平/ヘビおんな物語
TTITLE6=間寛平/花の芸能界
TTITLE7=林家木久蔵/酔姫エレジー
TTITLE8=林家木久蔵/歌奈里亜
TTITLE9=兼田みえ子/夕闇
TTITLE10=山本正之/さよならラララ
TTITLE11=山本正之/風の中
TTITLE12=間寛平/わたしは宇宙人
TTITLE13=間寛平/からから節
TTITLE14=木村進/博多花嫁
TTITLE15=兼田みえ子/卑弥呼
TTITLE16=兼田みえ子/好色五人女
EXTD=
EXTT0=
EXTT1=
EXTT2=
EXTT3=
EXTT4=
EXTT5=
EXTT6=
EXTT7=
EXTT8=
EXTT9=
EXTT10=
EXTT11=
EXTT12=
EXTT13=
EXTT14=
EXTT15=
EXTT16=
PLAYORDER=
